<svg width="40" height="38" viewBox="0 0 40 38" fill="none" xmlns="http://www.w3.org/2000/svg">
<path d="M15.3846 37.238C13.9581 36.4076 12.7236 34.1844 11.8868 30.9378C10.9387 27.2548 10.558 26.6238 8.85714 25.9291C8.46278 25.7689 7.83524 25.3733 7.45974 25.0513C6.99851 24.654 6.7499 24.5314 6.68817 24.672C6.63845 24.7848 6.21151 25.7771 5.74 26.8772C4.98729 28.6329 4.52777 29.4731 4.13513 29.7527C4.65808 29.3718 5.33878 27.9218 6.78761 24.2421C7.19398 23.2138 10.7209 18.5696 12.3292 16.9496C12.763 16.5099 13.1917 15.8102 13.4608 15.1645C13.2019 15.8364 12.763 16.5083 12.0343 17.3959C11.5748 17.955 11.1993 18.4487 11.1993 18.4912C11.1993 18.5337 11.3965 18.7576 11.6382 18.9881C12.2898 19.6093 12.8727 20.9579 13.0905 22.3442C13.298 23.6732 13.3391 24.1064 13.5723 24.2453C13.6855 24.3124 13.8432 24.3107 14.0884 24.3075C14.1433 24.3058 14.2016 24.3058 14.265 24.3058C15.2783 24.3058 16.9964 25.0823 18.4006 26.1743C18.9184 26.5781 19.3659 26.9116 19.3917 26.9148C19.4191 26.9181 19.7037 26.6713 20.0243 26.3639C20.7736 25.6496 22.2087 25.1428 24.1085 24.9188L25.6174 24.7423L25.5111 24.2813C25.2882 23.3152 26.202 21.4173 27.7658 19.5995L28.2287 19.0617L27.6955 18.5369C26.7987 17.6542 26.2501 16.0653 26.0752 13.8437L26.0306 13.2715L24.9161 13.1767C23.6044 13.0656 22.8672 12.7321 21.1714 11.4815L19.9197 10.5596L19.5768 10.9764C18.8447 11.8624 16.8077 12.5621 14.457 12.737L13.8569 12.7811L13.7575 13.8437C13.7523 13.8944 13.7472 13.945 13.742 13.9957C13.7403 13.9875 13.7403 13.9777 13.7386 13.9696L13.6855 13.435L11.3707 13.4399C9.71959 13.4448 8.70111 13.5315 7.81809 13.744C6.62644 14.0284 6.57501 14.0611 6.4687 14.5973C6.39326 14.9847 6.49957 15.5863 6.81848 16.5622C6.85106 16.6587 6.88021 16.7518 6.90764 16.8401C6.80648 16.5835 6.68131 16.3007 6.53042 15.9819C6.30924 15.5111 6.22351 15.0681 6.28352 14.715C6.40183 14.0268 6.31267 14.0284 4.59807 14.7575C2.97263 15.4473 1.01798 16.1323 0.669918 16.1323C0.53275 16.1323 0.30471 16.0211 0.162398 15.8854C-0.243963 15.498 0.116101 14.7885 1.19973 13.8453C2.42053 12.7811 4.14027 12.0128 6.48413 11.4848C9.1932 10.8751 10.5872 10.4484 11.0758 10.0822C11.3107 9.90567 11.8011 9.20111 12.1663 8.51453C12.5298 7.82795 13.0013 7.13647 13.2139 6.97627C13.4266 6.81607 13.5997 6.64769 13.5997 6.60192C13.5997 6.44008 12.4612 5.89082 11.0261 5.36118C9.8156 4.9149 8.96859 4.48497 8.51765 4.10245C8.99088 4.49151 9.89276 4.93615 11.1993 5.40858C13.8141 6.35344 15.9813 7.5288 18.5652 9.40218C19.2682 9.91221 20.002 10.419 20.1941 10.5269C20.9794 10.9731 21.216 10.8146 22.8311 8.75647C24.1548 7.07108 24.3503 6.74251 24.1497 6.54961C23.8136 6.23084 23.0403 6.26844 21.7578 6.67058C21.0171 6.90271 20.4547 6.98281 20.0638 6.91252C19.8837 6.88146 19.3436 6.63462 18.6424 6.27661C20.0072 6.92396 20.6056 6.84222 22.0956 6.39922C22.9032 6.15891 23.7896 5.99381 24.0674 6.03304C24.3451 6.07227 24.5732 6.04448 24.5732 5.97092C24.5732 5.89899 24.2594 5.15684 23.8753 4.32477C22.5191 1.37902 22.2859 0.497914 22.7643 0.118661C23.1089 -0.152701 23.6284 0.0369259 24.436 0.733312C25.9603 2.04598 26.6273 3.39298 27.6526 7.24109C28.0572 8.75156 28.5082 10.0577 28.7465 10.3994C29.0277 10.8048 29.5575 11.1807 30.4731 11.6237C31.2001 11.9752 31.9477 12.4476 32.1329 12.6749C32.4261 13.0296 32.5049 13.0541 32.7158 12.8514C32.8256 12.7452 33.1102 12.1796 33.4017 11.5044C32.3986 13.8698 31.3287 15.4244 27.6749 19.9624C26.3049 21.6641 26.2998 21.9388 27.6166 23.0961L28.6025 23.9642L29.8027 23.9691C31.4642 23.974 32.5872 23.6732 32.9336 23.1305C33.0004 23.0258 33.0485 22.9408 33.0776 22.8493C33.0742 22.9147 33.0656 22.9735 33.0536 23.0259C32.9473 23.4885 32.9679 23.513 33.3434 23.4018C33.5645 23.3364 34.247 23.0651 34.8608 22.7986C36.6954 21.9993 38.0962 21.5268 38.6312 21.5268C39.3153 21.5268 39.5451 21.9567 39.2107 22.6155C38.4152 24.18 35.5826 25.6365 31.946 26.3492C29.9502 26.7399 28.6145 27.214 28.1344 27.7028C27.8926 27.948 27.464 28.5888 27.1811 29.1282C26.8965 29.6677 26.4644 30.2872 26.2192 30.5047C25.974 30.7237 25.7734 30.9509 25.7734 31.013C25.7734 31.098 26.8279 31.595 27.6818 31.9383C27.3165 31.8124 26.9393 31.6816 26.6907 31.595C26.2998 31.4593 25.2659 30.9362 24.3949 30.4327C22.8414 29.5336 21.991 28.9566 18.7538 26.6026C16.0173 24.6115 15.3641 24.4595 14.553 25.6267C14.157 26.1972 14.1158 26.4113 14.1278 27.7763C14.1364 28.6509 14.2633 29.7069 14.4279 30.2725L14.7142 31.2533L15.5304 31.304C15.9796 31.3302 16.8146 31.2386 17.3873 31.0997C17.5999 31.0474 17.7971 31.0032 17.9823 30.9656C17.7748 31.0196 17.5605 31.0882 17.3307 31.1716C16.8352 31.3514 16.0619 31.4986 15.6144 31.4986C15.1669 31.4986 14.7999 31.5427 14.7999 31.5966C14.7999 31.6506 15.2149 32.6265 15.7207 33.7659C16.2265 34.9053 16.6963 36.0725 16.7615 36.3618C17.0238 37.493 16.4511 37.8576 15.3846 37.238ZM30.4062 31.7961C28.0692 30.2807 28.8614 27.1747 31.639 26.9622C32.3849 26.905 32.6524 26.9606 33.1428 27.2777C34.1544 27.9349 34.5607 28.6607 34.475 29.666C34.3996 30.5782 34.0566 31.1602 33.2714 31.7192C33.0022 31.9121 32.4501 32.0707 31.91 32.1116C31.1641 32.1688 30.8966 32.1132 30.4062 31.7961ZM6.09149 10.2244C3.9791 8.93465 4.7541 5.82707 7.28828 5.42002C8.74398 5.18463 10.3317 6.53163 10.3386 8.00613C10.3437 8.83003 9.77274 9.85826 9.09204 10.2539C8.3239 10.7001 6.84591 10.6854 6.09149 10.2244ZM29.7101 9.55257C28.8871 9.15697 28.1738 8.11403 28.1738 7.30485C28.1738 6.71308 28.858 5.50503 29.4101 5.12087C30.1302 4.62065 31.6048 4.56344 32.3558 5.00481C33.3297 5.57859 33.7137 6.32729 33.6263 7.47812C33.5663 8.27423 33.4617 8.54232 33.0502 8.95917C32.0626 9.95961 30.9635 10.1558 29.7101 9.55257ZM7.25056 32.602C6.20465 32.0985 5.71256 31.3514 5.71256 30.2725C5.71256 28.7768 6.82191 27.7387 8.42163 27.7387C9.67329 27.7387 10.6318 28.4204 11.0244 29.5925C11.4462 30.843 10.5117 32.432 9.13148 32.8096C8.2999 33.0368 8.10957 33.0156 7.25056 32.602ZM31.387 34.2154C31.2584 34.5571 30.5829 34.7663 29.4598 34.768C30.4097 34.75 31.195 34.5522 31.387 34.2154ZM19.6454 30.8986C20.5027 31.0441 21.4217 31.5182 23.0146 32.4712C21.4903 31.5607 20.5027 31.067 19.6454 30.8986ZM7.19055 18.1446C7.20084 18.3146 7.19055 18.465 7.16655 18.6072C7.14426 18.7266 7.06367 18.9309 6.9385 19.1957C7.10139 18.8083 7.18197 18.4765 7.19055 18.1446ZM3.26068 29.532C3.40985 29.7151 3.65676 29.8622 3.82993 29.8638C3.82822 29.8638 3.8265 29.8638 3.82479 29.8638C3.58989 29.8638 3.40128 29.751 3.26068 29.532ZM13.0871 3.35375C13.1008 3.35866 13.1145 3.36356 13.1265 3.36846C13.622 3.54992 14.98 4.2463 16.2642 4.97211C14.9337 4.22832 13.5877 3.53847 13.1145 3.36356L13.0871 3.35375ZM3.39956 25.558C3.32755 25.7591 3.26582 25.9569 3.20924 26.1596C2.97434 27.0015 2.91605 28.1343 3.03093 28.8716C2.99149 28.6411 2.97091 28.3746 2.97091 28.0706C2.97263 27.1796 3.08065 26.4293 3.39956 25.558ZM32.3575 18.9472C32.4981 18.2329 33.0056 17.4221 34.0549 15.7661C33.0142 17.4074 32.5066 18.2329 32.3575 18.9472ZM28.6968 32.2963C28.9574 32.3829 29.2798 32.5186 29.6055 32.6723C29.3243 32.5448 29.0209 32.4173 28.6968 32.2963ZM30.6566 33.233C30.8212 33.3343 30.9566 33.4291 31.0458 33.506C31.0732 33.5321 31.1007 33.5567 31.1264 33.5795C31.0029 33.47 30.8435 33.3523 30.6566 33.233Z" fill="#28B061"/>
<path d="M7.19052 18.1446C7.2008 17.7375 7.10136 17.3354 6.90761 16.8401C6.88017 16.7518 6.85103 16.6586 6.81845 16.5622C6.49953 15.5863 6.39323 14.9847 6.46867 14.5973C6.57497 14.0611 6.62641 14.0284 7.81806 13.744C8.70108 13.5314 9.71955 13.4448 11.3707 13.4399L13.6854 13.435L13.7386 13.9695C13.7403 13.9777 13.7403 13.9875 13.742 13.9957C13.6923 14.4109 13.6048 14.7885 13.4608 15.1645C13.1916 15.8102 12.763 16.5099 12.3292 16.9496C10.7209 18.5696 7.19394 23.2138 6.78758 24.2421C5.33874 27.9218 4.65805 29.3718 4.1351 29.7527C4.03051 29.8279 3.92934 29.8622 3.8299 29.8638C3.65672 29.8622 3.40982 29.7151 3.26065 29.532C3.15606 29.3685 3.0789 29.1478 3.03089 28.8716C2.91602 28.1343 2.97431 27.0015 3.20921 26.1596C3.26579 25.9569 3.32752 25.7591 3.39953 25.558C3.78532 24.5036 4.48145 23.2743 5.67138 21.4091C6.28692 20.4463 6.70014 19.763 6.93847 19.1957C7.06363 18.9309 7.14422 18.7265 7.16651 18.6072C7.19052 18.465 7.2008 18.3146 7.19052 18.1446ZM31.387 34.2154C31.1949 34.5522 30.4096 34.75 29.4598 34.768H29.4529C27.5154 34.768 25.8917 34.1893 23.0334 32.481C23.0283 32.4777 23.0214 32.4745 23.0146 32.4712C21.4217 31.5182 20.5027 31.0441 19.6454 30.8986C19.0727 30.7842 18.5583 30.8169 17.9822 30.9656C17.797 31.0032 17.5999 31.0474 17.3872 31.0997C16.8146 31.2386 15.9796 31.3302 15.5303 31.304L14.7142 31.2533L14.4278 30.2725C14.2632 29.7069 14.1364 28.6509 14.1278 27.7763C14.1158 26.4113 14.1569 26.1972 14.553 25.6267C15.364 24.4595 16.0173 24.6115 18.7538 26.6026C21.991 28.9566 22.8414 29.5336 24.3948 30.4327C25.2658 30.9362 26.2997 31.4593 26.6907 31.595C26.9393 31.6816 27.3165 31.8124 27.6817 31.9383C28.0161 32.074 28.3195 32.1851 28.5167 32.2407C28.5733 32.2554 28.6333 32.2734 28.6968 32.2963C29.0208 32.4172 29.3243 32.5447 29.6055 32.6723C29.9844 32.8504 30.3651 33.0531 30.6566 33.233C30.8434 33.3523 31.0029 33.47 31.1264 33.5795C31.3733 33.8198 31.4556 34.0356 31.387 34.2154ZM32.3574 18.9472C32.2186 19.6077 32.3883 20.1749 32.7278 21.2031C32.9781 21.9567 33.093 22.4978 33.0776 22.8493C33.0484 22.9408 33.0004 23.0258 32.9335 23.1305C32.5872 23.6732 31.4641 23.974 29.8027 23.9691L28.6025 23.9642L27.6166 23.0961C26.2997 21.9388 26.3049 21.6641 27.6749 19.9624C31.3287 15.4244 32.3986 13.8698 33.4016 11.5044C33.4634 11.3622 33.5251 11.2134 33.5851 11.0647C33.9297 10.2097 34.3978 9.16513 34.6224 8.74174C35.8381 6.45151 37.064 8.18104 36.3267 11.1464C35.9872 12.5081 35.526 13.4481 34.0549 15.7661C33.0056 17.4221 32.498 18.2329 32.3574 18.9472ZM8.51933 3.06603C8.5279 3.06276 8.53477 3.05786 8.54334 3.05459C8.93941 2.87314 9.99732 2.85679 11.0569 2.95977C11.8148 3.03497 12.5727 3.17065 13.087 3.35374C13.5877 3.53846 14.9337 4.22831 16.2642 4.9721C16.3842 5.03913 16.5042 5.10778 16.6225 5.17644C17.473 5.66522 18.1142 6.02486 18.6423 6.2766C19.3436 6.6346 19.8837 6.88144 20.0637 6.9125C20.4547 6.9828 21.0171 6.90269 21.7578 6.67057C23.0403 6.26843 23.8136 6.23083 24.1496 6.5496C24.3502 6.74249 24.1548 7.07107 22.8311 8.75646C21.216 10.8146 20.9793 10.9731 20.1941 10.5268C20.002 10.419 19.2682 9.9122 18.5652 9.40217C15.9813 7.52879 13.814 6.35343 11.1993 5.40857C9.89273 4.93614 8.99084 4.4915 8.51761 4.10244C8.02724 3.68559 8.01181 3.32432 8.51933 3.06603ZM34.8436 20.5035C34.2006 20.0964 33.4874 18.9113 33.4925 18.2639C33.4994 17.5626 34.1183 16.487 34.7167 16.1404C36.704 14.988 38.9758 16.1437 38.9758 18.3081C38.9758 20.2534 36.5119 21.5611 34.8436 20.5035ZM19.4293 37.0369C18.8824 36.8293 18.0954 36.1199 17.785 35.5526C17.2312 34.5407 17.6513 33.2232 18.7846 32.4238C19.4773 31.9334 21.0599 31.8696 21.7801 32.3012C22.4625 32.7099 23.0317 33.7381 23.0266 34.5571C23.0197 36.267 21.0256 37.6418 19.4293 37.0369ZM17.9719 5.36443C16.1682 4.29697 15.9058 2.45792 17.3735 1.19265C18.0011 0.651565 18.1451 0.602524 19.095 0.602524C20.9433 0.602524 21.8281 1.39699 21.8281 3.05459C21.8281 4.11225 21.4251 4.85767 20.5884 5.34482C19.87 5.76167 18.6578 5.77148 17.9719 5.36443ZM2.28333 21.8341C1.22885 21.4336 0.568726 20.4512 0.568726 19.2873C0.57044 18.2884 1.02824 17.5561 1.92669 17.1196C3.8659 16.1764 5.88228 17.306 5.88399 19.3363C5.88399 20.3989 5.38504 21.1492 4.34599 21.6494C3.52813 22.0434 2.96745 22.0941 2.28333 21.8341Z" fill="#77E2A3"/>
</svg>
